<?xml version="1.0" encoding="UTF-8"?>
<svg width="948px" height="730px" viewBox="0 0 948 730" version="1.1" xmlns="http://www.w3.org/2000/svg" xmlns:xlink="http://www.w3.org/1999/xlink">
    <!-- Generator: Sketch 52.6 (67491) - http://www.bohemiancoding.com/sketch -->
    <title>undraw_delivery_address_03n0</title>
    <desc>Created with Sketch.</desc>
    <g id="Page-1" stroke="none" stroke-width="1" fill="none" fill-rule="evenodd">
        <g id="undraw_delivery_address_03n0">
            <rect id="Rectangle" fill="#BEB6C0" x="0" y="0" width="948" height="730"></rect>
            <rect id="Rectangle" fill="#3F3D56" x="119.00233" y="666.27035" width="556.10756" height="2.36139"></rect>
            <path d="M413.91699,341.37544 C413.91699,341.37544 402.11499,394.48444 425.71899,385.04286 C449.32299,375.60128 435.1606,339.01504 435.1606,339.01504 L413.91699,341.37544 Z" id="Path" fill="#FFB9B9"></path>
            <path d="M634.6145,359.07845 C634.6145,359.07845 662.93932,393.30426 645.23631,400.38545 C627.5333,407.46664 618.09169,368.52003 620.45209,364.97945 C622.81249,361.43887 634.6145,359.07845 634.6145,359.07845 Z" id="Path" fill="#FFB9B9"></path>
            <circle id="Oval" fill="#FFB9B9" cx="567.34306" cy="81.7313" r="35.40602"></circle>
            <polygon id="Path" fill="#FFB9B9" points="540.789 95.304 536.068 131.89 575.014 146.052 583.276 104.745"></polygon>
            <path d="M562.62226,131.29973 C562.62226,131.29973 542.61505,121.42261 538.45626,113.37896 L529.57666,121.85812 C529.57666,121.85812 465.84582,115.95712 456.40422,147.82254 C446.96262,179.68796 455.22402,295.34761 455.22402,295.34761 C455.22402,295.34761 442.24181,347.27644 445.78241,348.45661 C449.32301,349.63678 492.99041,370.88042 554.36087,359.07842 C554.36087,359.07842 581.50548,354.35761 586.22629,357.89821 C590.9471,361.43881 583.86589,301.24859 583.86589,301.24859 C583.86589,301.24859 631.07389,195.03053 622.81251,182.04832 C614.55113,169.06611 577.96488,141.9215 577.96488,141.9215 L580.32528,128.9393 C580.32528,128.9393 563.80246,136.02053 562.62226,131.29973 Z" id="Path" fill="#7AA7AE"></path>
            <path d="M467.84581,139.56113 C467.84581,139.56113 446.6022,150.18294 443.0616,166.70575 C439.521,183.22856 406.47541,320.13183 410.01598,328.39323 C413.55655,336.65463 412.37641,347.27644 412.37641,347.27644 L443.06162,343.73584 C443.06162,343.73584 437.16062,335.47443 440.70122,331.93384 C444.24182,328.39325 447.78242,316.59123 445.42202,311.87043 C443.06162,307.14963 440.70122,315.41103 453.68343,300.06843 C466.66564,284.72583 496.17063,144.28194 467.84581,139.56113 Z" id="Path" fill="#7AA7AE"></path>
            <path d="M615.73129,179.68795 C615.73129,179.68795 625.763,180.27805 628.1234,196.80086 C630.4838,213.32367 634.6145,315.41102 634.6145,315.41102 C634.6145,315.41102 649.95711,348.45664 644.05611,353.17744 C638.15511,357.89824 641.6957,364.97944 641.6957,364.97944 L620.45209,370.88044 L574.42427,298.8882 L615.73129,179.68795 Z" id="Path" fill="#7AA7AE"></path>
            <path d="M449.32301,343.73584 C449.32301,343.73584 442.2418,344.91604 442.2418,370.88045 C442.2418,396.84486 429.2596,477.09851 437.521,490.08071 C445.7824,503.06291 446.9626,619.90278 446.9626,619.90278 C446.9626,619.90278 469.38642,629.34438 488.2696,598.65917 L490.63,582.13636 L495.3508,501.88272 L514.23401,401.56572 L540.19841,512.50452 C540.19841,512.50452 536.65781,645.86719 549.64002,645.86719 C562.62223,645.86719 587.40644,635.24539 587.40644,635.24539 C587.40644,635.24539 593.30744,623.44339 590.94704,617.54239 C588.58664,611.64139 586.22624,612.82159 588.58664,608.10078 C590.94704,603.37997 594.48764,480.63912 594.48764,480.63912 C594.48764,480.63912 589.76684,354.35765 583.86584,350.81705 C577.96484,347.27645 449.32301,343.73584 449.32301,343.73584 Z" id="Path" fill="#2F2E41"></path>
            <path d="M449.32301,615.18198 L430.4398,635.24539 C430.4398,635.24539 396.21398,667.1108 425.71899,668.291 C455.224,669.4712 471.74682,649.40779 471.74682,647.04739 C471.74682,644.68699 472.92702,636.42559 481.18842,636.42559 C489.44982,636.42559 509.51324,616.36218 504.79242,608.10077 C500.0716,599.83936 485.90921,596.29877 485.90921,596.29877 L449.32301,615.18198 Z" id="Path" fill="#2F2E41"></path>
            <path d="M550.82026,641.14639 C550.82026,641.14639 536.65785,669.47121 544.91926,675.37221 C553.18067,681.27321 555.54106,683.63361 555.54106,683.63361 C555.54106,683.63361 562.62226,682.45341 561.44206,693.07522 C560.26186,703.69703 603.92929,709.59803 606.28969,701.33662 C608.65009,693.07521 607.46989,676.55241 602.74908,671.83162 C598.02827,667.11083 583.86588,634.0652 583.86588,634.0652 C583.86588,634.0652 568.52327,616.36218 550.82026,641.14639 Z" id="Path" fill="#2F2E41"></path>
            <path d="M603.07604,53.30127 L609.74581,52.35381 C609.74581,52.35381 600.46073,35.26404 582.48965,32.16086 L588.79798,27.90315 C588.79798,27.90315 577.8361,20.06923 563.66936,30.13875 C556.22218,35.43205 547.57547,41.68026 541.21506,49.54475 L534.70878,47.95467 L535.96299,54.59749 L524.99755,58.25392 L535.01513,59.56404 C533.633634,62.6962411 532.72748,66.0171354 532.32663,69.41692 C531.938216,72.8208156 532.887462,76.242471 534.97403,78.95975 C534.97403,78.95975 546.32003,65.20537 546.91448,62.77314 L545.42848,68.85369 C545.42848,68.85369 552.84125,64.86598 553.73287,61.21769 L556.00644,66.28394 L559.29798,60.00024 L578.09851,71.68304 L576.12215,65.4007 L588.37931,70.32936 L585.04308,62.42588 C585.04308,62.42588 597.47108,73.84003 596.38888,80.66367 C595.30649,87.48717 597.96077,94.85223 597.96077,94.85223 C597.96077,94.85223 616.8638,66.33643 603.07604,53.30127 Z" id="Path" fill="#2F2E41"></path>
            <rect id="Rectangle" fill="#3F3D56" x="740.92081" y="454.45048" width="189" height="2.26159"></rect>
            <rect id="Rectangle" fill="#CFCCE0" x="177.89644" y="628.7084" width="45.55804" height="45.55804"></rect>
            <path d="M217.46,668.27196 L169.50417,668.27196 L169.50417,620.31613 L217.46,620.31613 L217.46,668.27196 Z M171.90196,665.87417 L215.06221,665.87417 L215.06221,622.71392 L171.90196,622.71392 L171.90196,665.87417 Z" id="Shape" fill="#3F3D56" fill-rule="nonzero"></path>
            <rect id="Rectangle" fill="#F2F2F2" transform="translate(264.264941, 250.126875) rotate(-21.144190) translate(-264.264941, -250.126875) " x="248.808641" y="235.20576" width="30.9126" height="29.84223"></rect>
            <path d="M278.85293,256.27304 L248.50405,268.01059 L237.17292,238.71259 L267.5218,226.97504 L278.85293,256.27304 Z M249.45493,265.95881 L276.76893,255.39501 L266.57093,229.0268 L239.25693,239.5906 L249.45493,265.95881 Z" id="Shape" fill="#3F3D56" fill-rule="nonzero"></path>
            <rect id="Rectangle" fill="#F2F2F2" transform="translate(783.944243, 560.176521) rotate(71.027060) translate(-783.944243, -560.176521) " x="768.487943" y="545.255406" width="30.9126" height="29.84223"></rect>
            <path d="M777.24988,574.52122 L766.67056,543.74944 L796.37684,533.53644 L806.95616,564.30822 L777.24988,574.52122 Z M768.68488,544.77738 L778.20627,572.47198 L804.94192,563.28028 L795.42053,535.58567 L768.68488,544.77738 Z" id="Shape" fill="#3F3D56" fill-rule="nonzero"></path>
            <path d="M160.34061,424.62192 C177.24423,424.98452 190.69085,437.23421 190.69085,437.23421 C190.69085,437.23421 176.7313,448.89601 159.82768,448.5334 C142.92406,448.17079 129.47741,435.92111 129.47741,435.92111 C129.47741,435.92111 143.437,424.25931 160.34061,424.62192 Z" id="Path" fill="#6C63FF"></path>
            <path d="M75.35787,366.9211 C90.62956,374.1764 108.1413,369.25648 108.1413,369.25648 C108.1413,369.25648 100.89274,352.5734 85.62105,345.3181 C70.34936,338.0628 52.83763,342.98273 52.83763,342.98273 C52.83763,342.98273 60.08618,359.66581 75.35787,366.9211 Z" id="Path" fill="#6C63FF"></path>
            <path d="M76.91028,359.71119 C93.74762,358.17244 108.48528,368.83391 108.48528,368.83391 C108.48528,368.83391 95.92428,381.99018 79.08692,383.52891 C62.24956,385.06764 47.51192,374.40619 47.51192,374.40619 C47.51192,374.40619 60.07294,361.24994 76.91028,359.71119 Z" id="Path" fill="#3F3D56"></path>
            <path d="M138.6307,362.6263 C137.01685,379.4566 147.61245,394.24172 147.61245,394.24172 C147.61245,394.24172 160.82463,381.73952 162.43845,364.90922 C164.05227,348.07892 153.4567,333.29379 153.4567,333.29379 C153.4567,333.29379 140.24455,345.79604 138.6307,362.6263 Z" id="Path" fill="#3F3D56"></path>
            <path d="M217.92623,465.84604 C209.09496,480.26383 212.13334,498.19804 212.13334,498.19804 C212.13334,498.19804 229.49004,492.75638 238.32134,478.3386 C247.15264,463.92082 244.11423,445.9866 244.11423,445.9866 C244.11423,445.9866 226.7575,451.42827 217.92623,465.84604 Z" id="Path-2" fill="#3F3D56"></path>
            <path d="M192.30558,622.60438 L193.59258,621.73448 C189.056131,615.151278 186.579155,607.368068 186.4764,599.37386 C186.5124,587.67991 192.25626,576.86386 197.81124,566.40381 C198.8423,564.46228 199.86995,562.52681 200.85854,560.59286 C205.008175,552.706287 208.315163,544.404377 210.72472,535.82466 C219.34103,503.8049 210.85782,466.02766 188.03266,434.77011 C169.92559,409.97385 142.93334,388.29086 105.51445,368.48191 L104.7879,369.85464 C141.99367,389.55058 168.813,411.08454 186.77825,435.68627 C209.32886,466.56727 217.71993,503.85154 209.22458,535.42118 C206.843156,543.89583 203.575584,552.096029 199.47596,559.88602 C198.4904,561.81277 197.46655,563.74065 196.43928,565.67536 C190.79594,576.30222 184.96034,587.29084 184.92318,599.36931 C185.025831,607.674979 187.595489,615.762618 192.30558,622.60438 Z" id="Path" fill="#3F3D56"></path>
            <circle id="Oval" fill="#3F3D56" cx="31.75596" cy="355.76716" r="14.75565"></circle>
            <polygon id="Path" fill="#2F2E41" points="835.044 442.926 645.109 374.709 679.018 280.296 797.281 251.293 868.954 348.514"></polygon>
            <path d="M812.03502,424.20445 L670.09591,370.09804 C706.94361,320.74142 723.42129,285.92526 723.4334,231.13904 L865.37251,285.24544 C832.39729,332.08649 818.60741,367.29886 812.03502,424.20445 Z" id="Path" fill="#F2F2F2"></path>
            <rect id="Rectangle" fill="#3F3D56" transform="translate(785.787555, 280.343992) rotate(20.866570) translate(-785.787555, -280.343992) " x="746.43945" y="278.513847" width="78.69621" height="3.66029"></rect>
            <rect id="Rectangle" fill="#3F3D56" transform="translate(780.572478, 294.024873) rotate(20.866570) translate(-780.572478, -294.024873) " x="741.224373" y="292.194728" width="78.69621" height="3.66029"></rect>
            <rect id="Rectangle" fill="#3F3D56" transform="translate(775.357404, 307.705734) rotate(20.866570) translate(-775.357404, -307.705734) " x="736.009299" y="305.875589" width="78.69621" height="3.66029"></rect>
            <rect id="Rectangle" fill="#3F3D56" transform="translate(770.142326, 321.386618) rotate(20.866570) translate(-770.142326, -321.386618) " x="730.794221" y="319.556473" width="78.69621" height="3.66029"></rect>
            <rect id="Rectangle" fill="#3F3D56" transform="translate(764.927248, 335.067498) rotate(20.866570) translate(-764.927248, -335.067498) " x="725.579143" y="333.237353" width="78.69621" height="3.66029"></rect>
            <rect id="Rectangle" fill="#3F3D56" transform="translate(759.712180, 348.748382) rotate(20.866570) translate(-759.712180, -348.748382) " x="720.364075" y="346.918237" width="78.69621" height="3.66029"></rect>
            <rect id="Rectangle" fill="#3F3D56" transform="translate(754.497102, 362.429263) rotate(20.866570) translate(-754.497102, -362.429263) " x="715.148997" y="360.599118" width="78.69621" height="3.66029"></rect>
            <rect id="Rectangle" fill="#3F3D56" transform="translate(749.282018, 376.110134) rotate(20.866570) translate(-749.282018, -376.110134) " x="709.933913" y="374.279989" width="78.69621" height="3.66029"></rect>
            <polygon id="Path" fill="#3F3D56" points="830.656 455.144 640.721 386.927 679.018 280.296 759.226 355.502 868.954 348.514"></polygon>
            <polygon id="Path" fill="#6C63FF" points="734.148 421.545 639.442 387.53 662.518 323.277 664.401 323.953 642.001 386.323 734.824 419.662"></polygon>
            <rect id="Rectangle" fill="#6C63FF" transform="translate(684.604926, 353.780469) rotate(19.756267) translate(-684.604926, -353.780469) " x="669.852401" y="347.879458" width="29.5050498" height="11.8020219"></rect>
            <polygon id="Path" fill="#3F3D56" points="386.521 667.111 237.865 667.032 239.032 583.576 312.91 616.781 387.688 585.655"></polygon>
            <rect id="Rectangle" fill="#6C63FF" transform="translate(260.506951, 633.438387) rotate(0.801170) translate(-260.506951, -633.438387) " x="249.639191" y="629.091282" width="21.73552" height="8.69421"></rect>
            <polygon id="Path" fill="#6C63FF" points="388.185 585.541 313.045 623.848 238.641 585.541 238.641 583.331 388.185 583.331"></polygon>
            <ellipse id="Oval" fill="#6C63FF" transform="translate(796.787783, 260.758687) rotate(-69.133430) translate(-796.787783, -260.758687) " cx="796.787783" cy="260.758687" rx="9.02966" ry="25"></ellipse>
            <path d="M840.56498,127.55288 C830.941262,124.560438 820.522962,125.513566 811.60199,130.202587 C802.681017,134.891608 795.988131,142.932421 792.99569,152.55614 C786.76425,172.59649 803.74669,245.96072 803.74669,245.96072 C803.74669,245.96072 859.33678,195.16252 865.56821,175.12217 C871.799651,155.081822 860.605325,133.784329 840.56498,127.55288 Z M823.93741,181.02739 C814.44461,178.075657 809.142028,167.98737 812.093761,158.49457 C815.045493,149.001771 825.13378,143.699188 834.62658,146.650921 C844.11938,149.602653 849.421963,159.69094 846.47023,169.18374 C845.052758,173.742343 841.882444,177.55115 837.65672,179.772265 C833.430997,181.99338 828.496013,182.444862 823.93741,181.02739 Z" id="Shape" fill="#6C63FF" fill-rule="nonzero"></path>
        </g>
    </g>
</svg>